<?xml version="1.0" encoding="utf-8"?>
<!-- Generator: Adobe Illustrator 23.0.4, SVG Export Plug-In . SVG Version: 6.00 Build 0)  -->
<svg version="1.1" id="Layer_1" xmlns="http://www.w3.org/2000/svg" xmlns:xlink="http://www.w3.org/1999/xlink" x="0px" y="0px"
	 viewBox="0 0 950 589.9" style="enable-background:new 0 0 950 589.9;" xml:space="preserve">
<style type="text/css">
	.st0{fill:#BC2172;}
	.st1{fill:#111142;}
	.st2{fill-rule:evenodd;clip-rule:evenodd;fill:#111142;}
	.st3{fill-rule:evenodd;clip-rule:evenodd;fill:#BC2172;}
</style>
<g>
	<path class="st0" d="M2.8,584.1c-1.8-2.6-2.8-5.6-2.8-9v-69.3c0-4.4,0.9-7.8,2.7-10.3c1.8-2.5,4.9-3.7,9.4-3.7h45.4
		c2.3,0,4.3,0.8,5.7,2.4c1.5,1.6,2.2,3.5,2.2,5.7c0,2.1-0.8,4-2.3,5.5c-1.5,1.6-3.4,2.4-5.7,2.4H20.9v23.2h33.8
		c2.3,0,4.3,0.8,5.8,2.3c1.5,1.6,2.3,3.4,2.3,5.6c0,2.2-0.8,4-2.3,5.5c-1.5,1.5-3.4,2.3-5.8,2.3H20.9V572H59c2.3,0,4.1,0.8,5.5,2.4
		c1.4,1.6,2.2,3.5,2.2,5.6c0,2.2-0.7,4-2.2,5.6c-1.4,1.5-3.3,2.3-5.5,2.3H10.4C7.1,587.9,4.6,586.7,2.8,584.1z"/>
	<path class="st0" d="M84.3,581c-1.6-1.1-2.3-2.7-2.3-4.9c0-1.1,0.2-2.2,0.6-3.3c0.4-1.1,1-2.1,1.7-3.1c0.7-0.9,1.6-1.6,2.6-2.2
		c1-0.6,2.1-0.9,3.1-0.9s2.1,0.3,3.1,0.8c8.2,4.4,16.4,6.6,24.5,6.6c5.4,0,9.9-1,13.3-3c3.4-2,5.1-4.9,5.1-8.8
		c0-3.1-0.9-5.5-2.8-7.3c-1.9-1.8-4.7-3.3-8.5-4.6l-22-7.3c-7.8-2.8-13.4-6.1-16.8-9.9c-3.4-3.8-5.1-9-5.1-15.6
		c0-8.6,3.5-15.5,10.4-20.6s16.1-7.6,27.5-7.6c6.1,0,12.1,0.8,18.2,2.5c6,1.7,10.6,3.9,13.8,6.7c1.6,1.4,2.3,3.2,2.3,5.3
		c0,2.1-0.7,4-2.1,5.7c-1.4,1.7-3.1,2.6-5,2.6c-0.3,0-0.5,0-0.8-0.1c-0.2,0-0.5-0.1-0.7-0.1c-0.2,0-0.5-0.1-0.7-0.2
		c-0.2-0.1-0.5-0.2-0.8-0.4c-7.3-4.1-15-6.1-23-6.1c-3.5,0-6.5,0.3-9.2,1c-2.7,0.6-4.9,1.8-6.8,3.6c-1.8,1.7-2.8,3.9-2.8,6.5
		c0,2.1,0.6,3.9,1.8,5.5s2.9,2.9,5.1,3.9c2.2,1,4.4,1.8,6.4,2.5c2.1,0.6,4.5,1.3,7.4,2.1c2.9,0.7,5,1.3,6.4,1.8
		c4.7,1.5,8.7,2.9,11.9,4.4c3.2,1.5,6.1,3.4,8.7,5.5c2.6,2.2,4.5,4.8,5.8,7.8c1.2,3,1.9,6.5,1.9,10.5c0,9.1-3.5,16.3-10.5,21.6
		c-7,5.3-16.4,7.9-28.3,7.9C104,589.9,92.8,587,84.3,581z"/>
	<path class="st0" d="M198.4,586.5c-5.7-2.3-10.6-5.5-14.7-9.7c-4.2-4.2-7.4-9.4-9.8-15.7c-2.4-6.3-3.6-13.2-3.6-20.8
		c0-7.8,1.2-14.9,3.7-21.3c2.4-6.4,5.8-11.8,10.1-16.1c4.3-4.3,9.3-7.6,15.2-10c5.9-2.4,12.2-3.5,19.1-3.5c9.4,0,18,2.1,25.8,6.2
		c1.1,0.6,2,1.4,2.8,2.2c0.7,0.9,1.3,1.7,1.6,2.6c0.3,0.9,0.5,1.8,0.5,2.8c0,2.2-0.8,4.1-2.3,5.7c-1.5,1.7-3.4,2.5-5.6,2.5
		c-0.5,0-1-0.1-1.6-0.2c-0.6-0.1-1.1-0.3-1.6-0.5c-0.2-0.1-0.9-0.4-2.2-0.9c-1.2-0.5-2.1-0.9-2.7-1.1c-0.6-0.2-1.5-0.5-2.8-1
		s-2.4-0.7-3.4-0.9c-1-0.2-2.1-0.4-3.5-0.6c-1.3-0.2-2.7-0.3-4-0.3c-17.9,0-26.9,11.2-26.9,33.7c0,10.8,2.3,19,6.8,24.8
		c4.6,5.8,11.2,8.6,19.9,8.6c6.6,0,13.6-1.9,20.9-5.8c0.4-0.2,0.9-0.4,1.4-0.5s1-0.2,1.4-0.2c1.2,0,2.4,0.4,3.5,1.1
		c1.1,0.7,1.9,1.7,2.5,2.9c0.6,1.2,0.9,2.5,0.9,3.8c0,2.9-1.4,5.4-4.2,7.4c-7.8,5.5-17.5,8.2-29,8.2
		C210.2,589.9,204.1,588.8,198.4,586.5z"/>
	<path class="st0" d="M275.2,576.8c-8.1-8.7-12.1-21.1-12.1-37.2c0-16,4-28.4,12.1-37.2c8.1-8.7,19.7-13.1,34.9-13.1
		s26.8,4.4,34.9,13.1c8.1,8.7,12.1,21.1,12.1,37.2c0,16-4,28.4-12.1,37.2c-8.1,8.7-19.7,13.1-34.9,13.1S283.2,585.6,275.2,576.8z
		 M328.6,565.5c4-5.7,5.9-14.3,5.9-25.8c0-11.5-2-20.1-5.9-25.8c-3.9-5.7-10.2-8.5-18.7-8.5s-14.7,2.8-18.7,8.5
		c-3.9,5.7-5.9,14.3-5.9,25.8c0,11.5,2,20.2,5.9,25.8c4,5.7,10.2,8.5,18.6,8.5S324.7,571.2,328.6,565.5z"/>
	<path class="st0" d="M378.9,584.9c-2-2-3.1-4.7-3.1-8.2v-74c0-3.3,1.2-6,3.5-7.9c2.3-2,5.2-2.9,8.6-2.9h28.2c4,0,7.7,0.2,11,0.6
		c3.3,0.4,6.5,1.1,9.7,2.3c3.2,1.1,5.9,2.5,8,4.3c2.2,1.8,3.9,4.1,5.2,7c1.3,2.9,2,6.3,2,10.1c0,5.8-1.8,10.6-5.3,14.5
		c-3.5,3.9-8.9,6.5-16.2,7.7v0.3c6.4,1.1,11.1,3.3,13.9,6.7c2.9,3.4,4.7,8.5,5.5,15.1l1.7,13.4c0.1,1,0.1,1.9,0.1,2.9
		c0,3.7-0.9,6.4-2.6,8.3c-1.7,1.9-4.2,2.8-7.4,2.8c-3.2,0-5.8-1-7.7-3c-1.9-2-3.1-5-3.5-9l-1.4-13.1c-0.5-5.6-1.9-9.6-4.3-11.9
		s-6.3-3.5-12-3.5h-15.8v29.3c0,3.6-1,6.3-3.1,8.3c-2.1,1.9-4.6,2.9-7.6,2.9C383.5,587.9,380.9,586.9,378.9,584.9z M409.3,532.8
		c2.4,0,4.5-0.1,6.3-0.2c1.7-0.1,3.7-0.5,5.7-1s3.8-1.3,5.1-2.2c1.3-0.9,2.4-2.2,3.3-3.9c0.9-1.7,1.3-3.8,1.3-6.1
		c0-1.8-0.2-3.4-0.7-4.8c-0.4-1.4-1-2.5-1.6-3.5c-0.6-0.9-1.5-1.7-2.7-2.3c-1.2-0.6-2.2-1.1-3.2-1.4c-0.9-0.3-2.2-0.6-3.9-0.7
		c-1.6-0.2-3-0.3-4-0.3c-1,0-2.4,0-4.3,0h-0.3H397v26.4H409.3z"/>
	<path class="st0" d="M494.2,584.8c-2.1-2.1-3.2-4.8-3.2-8v-68.7h-20.3c-2.3,0-4.3-0.8-5.9-2.4c-1.6-1.6-2.4-3.5-2.4-5.7
		c0-2.2,0.8-4.1,2.4-5.7c1.6-1.6,3.5-2.4,5.9-2.4h61.6c2.3,0,4.3,0.8,5.8,2.4c1.6,1.6,2.3,3.5,2.3,5.7c0,2.2-0.8,4.1-2.3,5.7
		c-1.6,1.6-3.5,2.4-5.8,2.4h-20.1v68.7c0,3.2-1.1,5.9-3.2,8c-2.1,2.1-4.6,3.2-7.5,3.2C498.8,587.9,496.3,586.9,494.2,584.8z"/>
	<path class="st1" d="M595.9,584.8c-2.1-2.1-3.1-4.8-3.1-8.1v-74c0-3.4,1.2-6.1,3.6-8c2.4-1.9,5.3-2.9,8.7-2.9h43.4
		c2.3,0,4.1,0.8,5.5,2.4c1.4,1.6,2.1,3.5,2.1,5.7c0,2.1-0.7,4-2.1,5.5c-1.4,1.6-3.3,2.4-5.5,2.4h-34.3v23h32.4c2.2,0,4,0.8,5.5,2.3
		c1.4,1.6,2.2,3.4,2.2,5.6c0,2.2-0.7,4-2.2,5.5c-1.4,1.5-3.3,2.3-5.5,2.3h-32.4v30.1c0,3.2-1.1,5.9-3.2,8s-4.6,3.2-7.6,3.2
		C600.5,587.9,598,586.9,595.9,584.8z"/>
	<path class="st1" d="M730.8,566h-40.9l-5.4,14.7c-0.8,2.5-2.1,4.3-3.9,5.6c-1.7,1.2-3.7,1.9-5.7,1.9c-2.6,0-4.9-0.9-6.8-2.6
		s-2.9-3.9-2.9-6.6c0-1.3,0.3-2.7,0.8-4.1l27.2-69.5c2.1-5.7,4.5-9.5,7.3-11.5c2.8-2,6.1-3,10-3s7.2,1,10,3c2.8,2,5.2,5.9,7.3,11.5
		l27.2,69.5c0.5,1.4,0.7,2.8,0.7,4c0,2.7-1,5-2.9,6.7c-1.9,1.7-4.2,2.6-6.8,2.6c-0.8,0-1.5-0.1-2.3-0.3c-3.5-0.8-6-3.2-7.4-7.2
		L730.8,566z M710.3,509.8l-15.7,43H726L710.3,509.8z"/>
	<path class="st1" d="M773.9,585.3c-1.8-1.7-2.7-3.9-2.7-6.6v-74.5c0-3.8,1-6.8,3.1-9c2.1-2.2,4.6-3.3,7.7-3.3
		c2.3,0,4.5,0.8,6.8,2.3s4.3,3.5,6,6l41.9,57.3v-56.3c0-2.7,0.9-4.9,2.7-6.6c1.8-1.8,4-2.7,6.5-2.7c2.5,0,4.7,0.9,6.5,2.6
		c1.8,1.7,2.8,4,2.8,6.7v71.5c0,4.6-0.9,8.3-2.6,11.1c-1.7,2.8-4.5,4.2-8.2,4.2c-2.2,0-4.4-0.8-6.7-2.4c-2.3-1.6-4.4-3.6-6.2-6.2
		l-41.8-57.3v56.6c0,2.7-0.9,4.9-2.8,6.6c-1.9,1.7-4.1,2.6-6.6,2.6C777.9,587.9,775.7,587.1,773.9,585.3z"/>
	<path class="st1" d="M877.7,581c-1.6-1.1-2.3-2.7-2.3-4.9c0-1.1,0.2-2.2,0.6-3.3c0.4-1.1,1-2.1,1.7-3.1c0.7-0.9,1.6-1.6,2.6-2.2
		s2.1-0.9,3.1-0.9c1.1,0,2.1,0.3,3.1,0.8c8.2,4.4,16.4,6.6,24.5,6.6c5.4,0,9.9-1,13.3-3c3.4-2,5.1-4.9,5.1-8.8
		c0-3.1-0.9-5.5-2.8-7.3c-1.9-1.8-4.7-3.3-8.5-4.6l-22-7.3c-7.8-2.8-13.4-6.1-16.8-9.9c-3.4-3.8-5.1-9-5.1-15.6
		c0-8.6,3.5-15.5,10.4-20.6c6.9-5.1,16.1-7.6,27.5-7.6c6.1,0,12.1,0.8,18.2,2.5c6,1.7,10.6,3.9,13.8,6.7c1.6,1.4,2.3,3.2,2.3,5.3
		c0,2.1-0.7,4-2.1,5.7c-1.4,1.7-3.1,2.6-5,2.6c-0.3,0-0.5,0-0.8-0.1c-0.2,0-0.5-0.1-0.7-0.1c-0.2,0-0.5-0.1-0.7-0.2
		c-0.2-0.1-0.5-0.2-0.8-0.4c-7.3-4.1-15-6.1-23-6.1c-3.5,0-6.5,0.3-9.2,1c-2.7,0.6-4.9,1.8-6.8,3.6c-1.8,1.7-2.8,3.9-2.8,6.5
		c0,2.1,0.6,3.9,1.8,5.5s2.9,2.9,5.1,3.9c2.2,1,4.4,1.8,6.4,2.5c2.1,0.6,4.5,1.3,7.4,2.1c2.9,0.7,5,1.3,6.4,1.8
		c4.7,1.5,8.7,2.9,11.9,4.4c3.2,1.5,6.1,3.4,8.7,5.5c2.6,2.2,4.5,4.8,5.8,7.8c1.2,3,1.9,6.5,1.9,10.5c0,9.1-3.5,16.3-10.5,21.6
		c-7,5.3-16.4,7.9-28.3,7.9C897.4,589.9,886.2,587,877.7,581z"/>
</g>
<g>
	<g transform="translate(0,-952.36218)">
		<path class="st2" d="M449,971.1c8-24.9,43.2-24.9,51.2-0.1l1.5,4.5l20,61.6l-93.9,0.2l19-59.2L449,971.1z"/>
		<path class="st2" d="M566.8,1174.9l19,57.8l2.5,7.6c8.2,24.8-20.3,45.6-41.4,30.2h0l-55.7-40.5L566.8,1174.9z"/>
	</g>
	<g transform="translate(0,-952.36218)">
		<path class="st3" d="M527.8,1055.8l87.2-0.3c26.6-0.1,37.7,34,16.2,49.6l-70.6,51.3l-85.5,62.3l-70.3,51.5
			c-21.5,15.7-50.5-5.3-42.3-30.6h0l26.9-82.8c0-0.1-0.1-0.2-0.1-0.3l-60-43.3l-10.6-7.7c-21.6-15.6-10.6-49.7,16-49.6l87.2,0
			L527.8,1055.8z"/>
	</g>
</g>
</svg>
