<?xml version="1.0" encoding="UTF-8"?>
<svg width="22px" height="22px" viewBox="0 0 22 22" version="1.1" xmlns="http://www.w3.org/2000/svg" xmlns:xlink="http://www.w3.org/1999/xlink">
    <!-- Generator: sketchtool 63.1 (101010) - https://sketch.com -->
    <title>D815EF48-FE0B-453A-BAE3-19D25D1AD664</title>
    <desc>Created with sketchtool.</desc>
    <g id="ESCORT_FANS_Landing_Page" stroke="none" stroke-width="1" fill="none" fill-rule="evenodd">
        <g id="01_Landing_1920" transform="translate(-1296.000000, -47.000000)" fill="#101141">
            <g id="05_GLOBAL/Header">
                <g id="Elements/header_buttons">
                    <g transform="translate(1102.000000, 34.000000)">
                        <g id="BTN/2ND_Icon_text" transform="translate(164.000000, 0.000000)">
                            <g id="elements/icon_text_distance" transform="translate(30.000000, 13.000000)">
                                <g id="Icons/user">
                                    <path d="M18.7,-0.00011 C20.57,-0.00011 22,1.42989 22,3.29989 L22,3.29989 L22,18.69989 C22,20.56989 20.57,21.99989 18.7,21.99989 L18.7,21.99989 L4.4,21.99989 C2.53,21.99989 1.1,20.56989 1.1,18.69989 L1.1,18.69989 L1.1,14.29989 L3.3,14.29989 L3.3,18.69989 C3.3,19.35989 3.74,19.79989 4.4,19.79989 L4.4,19.79989 L18.7,19.79989 C19.36,19.79989 19.8,19.35989 19.8,18.69989 L19.8,18.69989 L19.8,3.29989 C19.8,2.63989 19.36,2.19989 18.7,2.19989 L18.7,2.19989 L4.4,2.19989 C3.74,2.19989 3.3,2.63989 3.3,3.29989 L3.3,3.29989 L3.3,7.69989 L1.1,7.69989 L1.1,3.29989 C1.1,1.42989 2.53,-0.00011 4.4,-0.00011 L4.4,-0.00011 Z M9.18885,6.32093 C9.64095,5.86883 10.37575,5.87213 10.82235,6.32863 L10.82235,6.32863 L14.18835,9.76393 C14.86155,10.45033 14.86155,11.54923 14.18835,12.23673 L14.18835,12.23673 L10.82235,15.67093 C10.37575,16.12743 9.64095,16.13073 9.18885,15.67863 L9.18885,15.67863 L9.09835015,15.5769105 C8.73687908,15.1191229 8.77430714,14.45213 9.20535,14.03743 L9.20535,14.03743 L11.22055,12.10033 L1.09945,12.10033 C0.49225,12.10033 -0.00055,11.60753 -0.00055,11.00033 C-0.00055,10.39203 0.49225,9.90033 1.09945,9.90033 L1.09945,9.90033 L11.22055,9.90033 L9.20535,7.96213 C8.74115,7.51663 8.73345,6.77633 9.18885,6.32093 Z" id="Combined-Shape"></path>
                                </g>
                            </g>
                        </g>
                    </g>
                </g>
            </g>
        </g>
    </g>
</svg>