<?xml version="1.0" encoding="UTF-8"?>
<svg width="21px" height="22px" viewBox="0 0 21 22" version="1.1" xmlns="http://www.w3.org/2000/svg" xmlns:xlink="http://www.w3.org/1999/xlink">
    <!-- Generator: sketchtool 63.1 (101010) - https://sketch.com -->
    <title>B73BDCAD-9073-43B3-AD3C-5B46649B00CB</title>
    <desc>Created with sketchtool.</desc>
    <g id="ESCORT_FANS_Landing_Page" stroke="none" stroke-width="1" fill="none" fill-rule="evenodd">
        <g id="01_Landing_1920" transform="translate(-1439.000000, -47.000000)" fill="#FFFFFF">
            <g id="05_GLOBAL/Header">
                <g id="Elements/header_buttons">
                    <g transform="translate(1102.000000, 34.000000)">
                        <g id="BTN/2ND_Icon_text-Copy" transform="translate(307.000000, 0.000000)">
                            <g id="elements/icon_text_distance" transform="translate(30.000000, 13.000000)">
                                <g id="Icons/user">
                                    <path d="M10.3888889,13.4444444 C16.1265568,13.4444444 20.7777778,15.3595887 20.7777778,17.7222222 L20.7772089,17.9893667 C20.7627962,20.2275479 20.383263,22 10.3888889,22 C0,22 0,20.0851046 0,17.7222222 C0,15.3593398 4.65122099,13.4444444 10.3888889,13.4444444 Z M10.3890096,0 C13.4265049,0 15.8888889,2.40930724 15.8888889,5.38156542 C15.8888889,8.35358746 13.4265049,12.2222222 10.3890096,12.2222222 C7.35151422,12.2222222 4.88888889,8.35358746 4.88888889,5.38156542 C4.88888889,2.40930724 7.35127288,0 10.3890096,0 Z" id="Combined-Shape"></path>
                                </g>
                            </g>
                        </g>
                    </g>
                </g>
            </g>
        </g>
    </g>
</svg>