<?xml version="1.0" encoding="UTF-8"?>
<svg width="18px" height="18px" viewBox="0 0 18 18" version="1.1" xmlns="http://www.w3.org/2000/svg" xmlns:xlink="http://www.w3.org/1999/xlink">
    <!-- Generator: Sketch 63.1 (92452) - https://sketch.com -->
    <title>01_Icons/Feed</title>
    <desc>Created with Sketch.</desc>
    <g id="01_Icons/Feed" stroke="none" stroke-width="1" fill="none" fill-rule="evenodd">
        <path d="M6,15 C6,13.344 4.656,12 3,12 C1.344,12 0,13.344 0,15 C0,16.656 1.344,18 3,18 C4.656,18 6,16.656 6,15 M8.72727273,18 L12,18 C12,14.8461818 10.6363636,11.8363636 8.41090909,9.6 C6.17454545,7.37454545 3.15272727,6 0,6 L0,9.27272727 C2.4,9.27272727 4.76727273,9.85090909 6.46909091,11.5418182 C8.16,13.2436364 8.72727273,15.6 8.72727273,18 M14.625,18 L18,18 C18,13.5 16.45875,9 12.99375,5.533875 C9.52875,2.07 4.96125,1.62630326e-19 0,1.62630326e-19 L0,3.375 C4.095,3.375 7.92,4.78125 10.7775,7.63875 C13.635,10.49625 14.72625,14.0175 14.625,18" id="Fill-1" fill="#101141"></path>
    </g>
</svg>