<?xml version="1.0" encoding="UTF-8"?>
<svg width="18px" height="18px" viewBox="0 0 18 18" version="1.1" xmlns="http://www.w3.org/2000/svg" xmlns:xlink="http://www.w3.org/1999/xlink">
    <!-- Generator: Sketch 63.1 (92452) - https://sketch.com -->
    <title>01_Icons/camera</title>
    <desc>Created with Sketch.</desc>
    <g id="01_Icons/camera" stroke="none" stroke-width="1" fill="none" fill-rule="evenodd">
        <path d="M10,7 C8.3412527,7 7,8.34449244 7,10 C7,11.6555076 8.3412527,13 10,13 C11.6555076,13 13,11.6555076 13,10 C13,8.34449244 11.6555076,7 10,7 L10,7 Z M10.00168,6 C12.2125157,6 14,7.79345088 14,10 C14,12.2099076 12.2125157,14 10.00168,14 C7.79084418,14 6,12.2099076 6,10 C6,7.79345088 7.79084418,6 10.00168,6 L10.00168,6 Z M6.29931973,2 C5.97959184,2 5.68027211,2.16536735 5.52040816,2.43656981 L4.5,4.62603355 L0.901360544,4.62603355 C0.404761905,4.62603355 0,5.0163005 0,5.49917316 L0,15.123553 C0,15.609733 0.404761905,16 0.901360544,16 L17.0986395,16 C17.5952381,16 18,15.609733 18,15.123553 L18,5.49917316 C18,5.0163005 17.5952381,4.62603355 17.0986395,4.62603355 L13.5,4.62603355 L12.4761905,2.43656981 C12.3197279,2.16536735 12.0204082,2 11.7006803,2 L6.29931973,2 Z" id="Fill-1" fill="#101141"></path>
    </g>
</svg>