<?xml version="1.0" encoding="UTF-8"?>
<svg width="18px" height="18px" viewBox="0 0 18 18" version="1.1" xmlns="http://www.w3.org/2000/svg" xmlns:xlink="http://www.w3.org/1999/xlink">
    <!-- Generator: Sketch 63.1 (92452) - https://sketch.com -->
    <title>01_Icons/Settings</title>
    <desc>Created with Sketch.</desc>
    <g id="01_Icons/Settings" stroke="none" stroke-width="1" fill="none" fill-rule="evenodd">
        <path d="M9,5.61097257 C10.8628429,5.61097257 12.3665835,7.11471322 12.3665835,8.97755611 C12.3665835,10.840399 10.8628429,12.3441397 9,12.3441397 C7.13715711,12.3441397 5.63341646,10.840399 5.63341646,8.97755611 C5.63341646,7.11471322 7.13715711,5.61097257 9,5.61097257 L9,5.61097257 Z M7.87780549,0 L6.75561097,2.67082294 C6.53117207,2.73815461 6.32917706,2.85037406 6.12718204,2.96259352 L3.4563591,1.840399 L1.840399,3.4563591 L2.96259352,6.12718204 C2.85037406,6.35162095 2.7605985,6.53117207 2.67082294,6.75561097 L0,7.87780549 L0,10.1221945 L2.67082294,11.244389 C2.7605985,11.4688279 2.85037406,11.6483791 2.96259352,11.872818 L1.840399,14.5436409 L3.4563591,16.159601 L6.12718204,15.0374065 C6.32917706,15.127182 6.53117207,15.2416459 6.75561097,15.3314214 L7.87780549,18 L10.1221945,18 L11.244389,15.3314214 C11.446384,15.2416459 11.6708229,15.1496259 11.872818,15.0374065 L14.5436409,16.159601 L16.159601,14.5436409 L15.0374065,11.872818 C15.127182,11.6708229 15.2394015,11.446384 15.3291771,11.244389 L18,10.1221945 L18,7.87780549 L15.3291771,6.75561097 C15.2618454,6.55361596 15.1496259,6.32917706 15.0374065,6.12718204 L16.159601,3.4563591 L14.5436409,1.840399 L11.872818,2.96259352 C11.6708229,2.87281796 11.446384,2.7605985 11.244389,2.67082294 L10.1221945,0 L7.87780549,0 Z" id="Fill-1" fill="#101141"></path>
    </g>
</svg>