<?xml version="1.0" encoding="UTF-8"?>
<svg width="18px" height="18px" viewBox="0 0 18 18" version="1.1" xmlns="http://www.w3.org/2000/svg" xmlns:xlink="http://www.w3.org/1999/xlink">
    <!-- Generator: Sketch 63.1 (92452) - https://sketch.com -->
    <title>01_Icons/camera_2</title>
    <desc>Created with Sketch.</desc>
    <g id="01_Icons/camera_2" stroke="none" stroke-width="1" fill="none" fill-rule="evenodd">
        <path d="M10.861549,3 C12.0425086,3 13,4.05095355 13,5.34718826 L13,12.6528117 C13,13.9490465 12.0425086,15 10.861549,15 L2.13845099,15 C0.957491432,15 0,13.9490465 0,12.6528117 L0,5.34718826 C0,4.05095355 0.957491432,3 2.13845099,3 L10.861549,3 Z M16.6899152,4.16986425 C17.4099906,3.77084545 17.998115,4.0988061 18,4.90230972 L18,4.90230972 L18,13.1013262 C18,13.9011858 17.4099906,14.2289643 16.6919887,13.8301277 L16.6919887,13.8301277 L14,12.3342627 L14,5.66572926 Z" id="Combined-Shape" fill="#101141"></path>
    </g>
</svg>