<?xml version="1.0" encoding="UTF-8"?>
<svg width="22px" height="22px" viewBox="0 0 22 22" version="1.1" xmlns="http://www.w3.org/2000/svg" xmlns:xlink="http://www.w3.org/1999/xlink">
    <!-- Generator: sketchtool 63.1 (101010) - https://sketch.com -->
    <title>4CCE6F2B-ADEC-4556-9034-552B397033D5</title>
    <desc>Created with sketchtool.</desc>
    <g id="ESCORT_FANS_Landing_Page" stroke="none" stroke-width="1" fill="none" fill-rule="evenodd">
        <g id="01_Landing_1920" transform="translate(-1132.000000, -47.000000)" fill="#101141">
            <g id="05_GLOBAL/Header">
                <g id="Elements/header_buttons">
                    <g transform="translate(1102.000000, 34.000000)">
                        <g id="BTN/2ND_Icon_text-Copy-2">
                            <g id="elements/icon_text_distance" transform="translate(30.000000, 13.000000)">
                                <g id="Icons/user">
                                    <path d="M19.8284576,16.0478326 C19.8284576,16.3109118 19.5982765,16.5411061 19.3352124,16.5411061 L2.66352416,16.5411061 C2.40046004,16.5411061 2.17027894,16.3109118 2.17027894,16.0478326 L2.17027894,2.46636771 C2.17027894,2.20328849 2.40046004,1.97309417 2.66352416,1.97309417 L19.3352124,1.97309417 C19.5982765,1.97309417 19.8284576,2.20328849 19.8284576,2.46636771 L19.8284576,16.0478326 Z M20.1904996,0 L1.8414488,0 C0.822075357,0 0,0.822122571 0,1.84155456 L0,20.1584454 C0,21.1778774 0.822075357,22 1.8414488,22 L20.1572877,22 C21.17699,22 21.9990654,21.1778774 21.9990654,20.1584454 L21.9990654,1.84155456 C22.0316196,0.822122571 21.2095442,0 20.1904996,0 L20.1904996,0 Z" id="Fill-1"></path>
                                </g>
                            </g>
                        </g>
                    </g>
                </g>
            </g>
        </g>
    </g>
</svg>